<svg width="262" height="424" viewBox="0 0 262 424" fill="none" xmlns="http://www.w3.org/2000/svg">
<circle cx="167" cy="107" r="9" transform="rotate(180 167 107)" fill="#EEBC44" fill-opacity="0.5"/>
<circle cx="199" cy="113" r="7" transform="rotate(180 199 113)" fill="#EEBC44" fill-opacity="0.5"/>
<path d="M94.0063 406.323L159.942 273.658L168.256 179.136L27.8287 378.727L63.0096 396.116L94.0063 406.323Z" fill="#823919"/>
<path d="M139.293 164.812L71.4886 228.666L5.05363 362.347L27.8279 378.727L168.256 179.136L189.714 135.953L160.751 121.629L139.293 164.812Z" fill="#9B6147"/>
<path d="M160.762 121.627L189.723 135.943L178.478 158.571L149.518 144.255L160.762 121.627Z" fill="#823919"/>
<path d="M75.2712 371.433L106.287 381.646L152.268 289.098L121.252 278.885L40.1099 354.05L75.2712 371.433Z" fill="#3D3587"/>
<path d="M63.3163 245.121L17.3161 337.664L40.11 354.05L121.252 278.885L86.0906 261.501L63.3163 245.121Z" fill="#7175B2"/>
<path d="M235.789 37.7827L248.088 72.6044L237.252 76.4065L224.953 41.5848L235.789 37.7827Z" fill="#3D3587"/>
<path d="M224.956 41.6111L248.104 72.6221L235.802 37.8067L224.956 41.6111Z" fill="#7175B2"/>
<circle cx="200.133" cy="92.1324" r="4.5" transform="rotate(-150.505 200.133 92.1324)" fill="#EEBC44" fill-opacity="0.5"/>
<circle cx="186.22" cy="77.2206" r="7.5" transform="rotate(-150.505 186.22 77.2206)" fill="#EEBC44" fill-opacity="0.5"/>
</svg>
