<svg width="52" height="62" viewBox="0 0 52 62" fill="none" xmlns="http://www.w3.org/2000/svg">
<path d="M35.4619 19.7072C43.9442 19.7072 50.8117 27.4515 50.8117 36.9927C50.8117 46.5338 43.9442 54.2782 35.4619 54.2782" stroke="#D3F7FF" stroke-width="2" stroke-linecap="round" stroke-linejoin="round"/>
<path d="M35.6122 15.7369L23.6027 18.0045H11.2446L0 15.7369V7.79642L11.2446 10.064H23.6027L35.6122 7.79642V15.7369Z" fill="#F6E7B2"/>
<path d="M35.6122 7.79642L23.3307 10.064H11.0491L0 7.79642L3.06826 2.69629L22.7187 0.428696L35.0003 3.83401L35.6122 7.79642Z" fill="#F6EDD2"/>
<path d="M35.6127 59.3783L23.6031 61.6459L11.2451 17.4396H23.6031L35.6127 15.172V59.3783Z" fill="#EFD284"/>
<path d="M0 15.172L11.2446 17.4396L23.6026 61.6459H11.2446L0 59.3783V15.172Z" fill="#E5BA62"/>
</svg>
