<svg width="209" height="357" viewBox="0 0 209 357" fill="none" xmlns="http://www.w3.org/2000/svg">
<circle cx="33.0143" cy="58.347" r="4.5" transform="rotate(130.814 33.0143 58.347)" fill="#EEBC44" fill-opacity="0.5"/>
<circle cx="13.5779" cy="64.0235" r="7.5" transform="rotate(130.814 13.5779 64.0235)" fill="#EEBC44" fill-opacity="0.5"/>
<path d="M114.948 348.889L49.0124 216.224L40.6977 121.701L181.125 321.292L145.944 338.681L114.948 348.889Z" fill="#823919"/>
<path d="M69.6615 107.378L137.465 171.232L203.9 304.912L181.126 321.293L40.6985 121.701L19.2397 78.5181L48.2026 64.1943L69.6615 107.378Z" fill="#9B6147"/>
<path d="M48.1921 64.1921L19.2314 78.5087L30.4758 101.137L59.4364 86.8203L48.1921 64.1921Z" fill="#823919"/>
<path d="M133.684 313.999L102.668 324.211L56.687 231.663L87.7032 221.45L168.845 296.615L133.684 313.999Z" fill="#3D3587"/>
<path d="M145.639 187.686L191.639 280.229L168.845 296.615L87.7031 221.45L122.864 204.067L145.639 187.686Z" fill="#7175B2"/>
<path d="M44.5676 31.7002L8.24121 38.3497L10.3322 49.6414L46.6586 42.9918L44.5676 31.7002Z" fill="#3D3587"/>
<path d="M46.634 43.0024L8.21736 38.3442L44.5398 31.7005L46.634 43.0024Z" fill="#7175B2"/>
</svg>
