<svg width="1240" height="799" viewBox="0 0 1240 799" fill="none" xmlns="http://www.w3.org/2000/svg">
<g opacity="0.5">
<circle cx="1071.97" cy="576.322" r="168.033" transform="rotate(180 1071.97 576.322)" fill="#EEBC44" fill-opacity="0.5"/>
<ellipse cx="815.137" cy="702.005" rx="88.7978" ry="88.7978" transform="rotate(180 815.137 702.005)" fill="#EEBC44" fill-opacity="0.5"/>
<ellipse cx="791.23" cy="518.262" rx="53.9618" ry="53.9617" transform="rotate(180 791.23 518.262)" fill="#EEBC44" fill-opacity="0.5"/>
<ellipse cx="621.83" cy="710.885" rx="53.9618" ry="53.9617" transform="rotate(180 621.83 710.885)" fill="#EEBC44" fill-opacity="0.5"/>
<ellipse cx="675.792" cy="606.377" rx="34.153" ry="34.153" transform="rotate(180 675.792 606.377)" fill="#EEBC44" fill-opacity="0.5"/>
<circle cx="567.869" cy="550.366" r="21.8579" transform="rotate(180 567.869 550.366)" fill="#EEBC44" fill-opacity="0.5"/>
<circle cx="511.858" cy="659.656" r="21.8579" transform="rotate(180 511.858 659.656)" fill="#EEBC44" fill-opacity="0.5"/>
<ellipse cx="957.213" cy="764.847" rx="34.153" ry="34.153" transform="rotate(180 957.213 764.847)" fill="#EEBC44" fill-opacity="0.5"/>
</g>
<g opacity="0.5">
<ellipse cx="168.033" cy="222.678" rx="168.033" ry="168.033" fill="#EEBC44" fill-opacity="0.5"/>
<circle cx="424.864" cy="96.9946" r="88.7978" fill="#EEBC44" fill-opacity="0.5"/>
<circle cx="448.77" cy="280.738" r="53.9618" fill="#EEBC44" fill-opacity="0.5"/>
<circle cx="618.17" cy="88.1147" r="53.9618" fill="#EEBC44" fill-opacity="0.5"/>
<ellipse cx="564.209" cy="192.623" rx="34.153" ry="34.153" fill="#EEBC44" fill-opacity="0.5"/>
<circle cx="672.131" cy="248.634" r="21.8579" fill="#EEBC44" fill-opacity="0.5"/>
<circle cx="728.142" cy="139.344" r="21.8579" fill="#EEBC44" fill-opacity="0.5"/>
<ellipse cx="282.787" cy="34.153" rx="34.153" ry="34.153" fill="#EEBC44" fill-opacity="0.5"/>
</g>
</svg>
