<svg width="400" height="400" viewBox="0 0 301 332" fill="none" xmlns="http://www.w3.org/2000/svg">
<path d="M75.459 0L106.241 3.02497L130.864 12.0926L135.476 22.6728L95.4696 31.7405L81.6184 18.1353L75.459 0Z" fill="#BA9881"/>
<path d="M20.0606 9.06767L44.6834 0H75.4582L81.6176 18.1353L56.9948 21.1603L9.28906 19.6478L20.0606 9.06767Z" fill="#A97E62"/>
<path d="M9.28906 19.6477L56.9948 21.1602L81.6176 18.1353L95.4689 31.7404L67.7664 34.7654L38.5314 33.2529L9.28906 19.6477Z" fill="#A47557"/>
<path d="M135.477 86.1536L141.636 198.005L78.5391 175.332L67.7676 34.7653L95.4701 31.7403L135.477 22.6726V86.1536Z" fill="#80503A"/>
<path d="M67.7664 34.7651L78.5379 175.332L18.5208 161.727L12.3688 86.1534L9.28906 19.6475L38.5314 33.2526L67.7664 34.7651Z" fill="#5E4134"/>
<path d="M141.635 234.283H15.4482L18.5206 161.727L78.5377 175.332L141.635 198.005V234.283Z" fill="#4D352A"/>
<path d="M110.904 119.016C110.904 128.279 108.075 136.797 103.33 143.563C96.7951 152.906 86.5982 158.912 75.1562 158.912C55.4182 158.912 39.4082 141.052 39.4082 119.016C39.4082 110.44 41.8248 102.494 45.9581 95.9958C52.4343 85.7847 63.0953 79.1196 75.1488 79.1196C94.8869 79.1196 110.897 96.98 110.897 119.016H110.904Z" fill="#353535"/>
<path d="M103.33 143.57C96.7951 152.913 86.5982 158.92 75.1562 158.92C55.4182 158.92 39.4082 141.059 39.4082 119.023C39.4082 110.448 41.8248 102.502 45.9581 96.0032L103.33 143.578V143.57Z" fill="#454545"/>
<path d="M64.7617 151.379L73.7208 136.435L82.6063 129.56L71.7979 156.076L67.7898 153.753L64.7617 151.379Z" fill="#823919"/>
<path d="M85.906 131.47L83.9315 142.181L74.906 157.248L71.7969 156.075L82.6053 129.56L85.5155 124.697L88.8236 126.6L85.906 131.47Z" fill="#9B6147"/>
<path d="M85.5226 124.694L83.9941 127.245L87.2959 129.154L88.8244 126.603L85.5226 124.694Z" fill="#823919"/>
<path d="M69.4524 150.973L66.4316 148.6L72.6794 138.172L75.7002 140.545L73.4678 153.289L69.4524 150.973Z" fill="#3D3587"/>
<path d="M82.8164 144.041L76.5686 154.461L73.4668 153.289L75.6992 140.545L79.7146 142.861L82.8164 144.041Z" fill="#7175B2"/>
<path d="M85.5603 124.101L84.8652 125.261L88.6368 127.442L89.332 126.282L85.5603 124.101Z" fill="#3D3587"/>
<path d="M88.6383 127.432L85.5586 124.096L89.3309 126.274L88.6383 127.432Z" fill="#7175B2"/>
<path d="M62.4965 157.393L51.1061 144.142L47.4443 133.627L69.3337 152.429L65.7751 155.374L62.4965 157.393Z" fill="#823919"/>
<path d="M50.3775 131.203L60.0145 136.58L71.4933 149.939L69.3346 152.429L47.4452 133.628L43.7393 129.314L46.6716 126.89L50.3775 131.203Z" fill="#9B6147"/>
<path d="M46.6668 126.885L43.7393 129.312L45.6831 131.574L48.6106 129.147L46.6668 126.885Z" fill="#823919"/>
<path d="M63.661 152.913L60.375 154.925L52.4326 145.683L55.7112 143.664L67.2122 149.96L63.661 152.913Z" fill="#3D3587"/>
<path d="M61.4292 138.223L69.3716 147.471L67.2129 149.961L55.7119 143.665L59.2705 140.719L61.4292 138.223Z" fill="#7175B2"/>
<path d="M46.5307 126.303L43.1865 129.076L44.0705 130.104L47.4147 127.332L46.5307 126.303Z" fill="#3D3587"/>
<path d="M47.4087 127.331L43.1797 129.075L46.5246 126.304L47.4087 127.331Z" fill="#7175B2"/>
<path d="M71.5879 149.049L86.2938 139.453L97.3453 137.086L75.8243 156.285L73.253 152.479L71.5879 149.049Z" fill="#823919"/>
<path d="M99.4671 140.22L92.9173 149.012L78.1008 158.681L75.8242 156.285L97.3452 137.086L102.134 133.96L104.256 137.101L99.4671 140.22Z" fill="#9B6147"/>
<path d="M102.137 133.961L99.627 135.599L101.747 138.733L104.257 137.096L102.137 133.961Z" fill="#823919"/>
<path d="M75.9874 150.698L74.3223 147.261L84.5855 140.567L86.2506 144.004L78.5587 154.505L75.9874 150.698Z" fill="#3D3587"/>
<path d="M91.0984 150.199L80.8352 156.893L78.5586 154.505L86.2505 144.004L88.8218 147.811L91.0984 150.199Z" fill="#7175B2"/>
<path d="M102.44 133.437L101.299 134.182L103.72 137.763L104.862 137.018L102.44 133.437Z" fill="#3D3587"/>
<path d="M103.718 137.766L102.436 133.439L104.86 137.028L103.718 137.766Z" fill="#7175B2"/>
<path d="M75.5023 76.9993C65.0033 76.9993 55.5063 81.8262 48.7281 89.613C42.1561 97.132 38.126 107.408 38.126 118.719C38.126 141.761 54.858 160.432 75.5023 160.432C87.3569 160.432 97.9295 154.266 104.774 144.663C109.85 137.542 112.879 128.525 112.879 118.719C112.879 95.6701 96.1465 76.9993 75.5023 76.9993ZM100.965 140.922C95.0634 149.367 85.8465 154.795 75.5023 154.795C57.6577 154.795 43.1876 138.642 43.1876 118.726C43.1876 108.834 46.7535 99.8747 52.5298 93.3544C58.3871 86.7472 66.5137 82.6584 75.5023 82.6584C93.3468 82.6584 107.817 98.8037 107.817 118.726C107.817 127.099 105.26 134.807 100.965 140.922Z" fill="#A97E62"/>
<path d="M104.774 144.663C97.9295 154.274 87.3569 160.432 75.5023 160.432C54.858 160.432 38.126 141.754 38.126 118.719C38.126 107.401 42.1635 97.132 48.7281 89.613L52.5298 93.3472C46.7535 99.8675 43.1876 108.834 43.1876 118.719C43.1876 138.635 57.6577 154.787 75.5023 154.787C85.8465 154.787 95.0634 149.36 100.965 140.915L104.774 144.656V144.663Z" fill="#A47557"/>
<path d="M0 176.773V290.412L29.7507 319.634L0 176.773Z" fill="#4D352A"/>
<path d="M29.7507 202.745L0 176.773L29.7507 319.634V202.745Z" fill="#5E4134"/>
<path d="M222.585 176.773H0L252.336 202.745L222.585 176.773Z" fill="#5E4134"/>
<path d="M29.8171 202.745H252.402L0.0664062 176.773L29.8171 202.745Z" fill="#80503A"/>
<path d="M29.751 202.745V319.634L252.336 202.745H29.751Z" fill="#A97E62"/>
<path d="M252.336 319.634V202.745L29.751 319.634H252.336Z" fill="#A47557"/>
<path d="M135.979 209.143H36.8096V315.212H135.979V209.143Z" fill="#A47557"/>
<path d="M135.979 232.865V315.212H36.8096V279.875L135.979 232.865Z" fill="#80503A"/>
<path d="M243.958 209.143H144.789V315.212H243.958V209.143Z" fill="#353535"/>
<path d="M243.965 232.865V315.212H144.789V279.875L243.965 232.865Z" fill="#454545"/>
<path d="M243.967 209.143V315.212L300.16 319.54V216.719L243.967 209.143Z" fill="#A47557"/>
<path d="M243.967 232.865V315.212L300.16 331.444V279.875L243.967 232.865Z" fill="#80503A"/>
<path d="M146.294 316.226L146.279 292.46L151.901 278.276L157.928 316.949L151.547 316.956L146.294 316.226Z" fill="#823919"/>
<path d="M157.148 278.276L162.408 292.264L162.423 316.211L157.929 316.949L151.902 278.276L151.895 270.54H157.148V278.276Z" fill="#9B6147"/>
<path d="M157.148 270.54H151.895V274.592H157.148V270.54Z" fill="#823919"/>
<path d="M151.548 312.534L146.294 311.804L146.287 295.224L151.533 295.955L157.921 312.534H151.548Z" fill="#3D3587"/>
<path d="M162.408 295.217L162.423 311.789L157.921 312.535L151.533 295.955H157.914L162.408 295.217Z" fill="#7175B2"/>
<path d="M157.517 269.802H151.52V271.647H157.517V269.802Z" fill="#3D3587"/>
<path d="M157.524 271.64L151.52 269.802H157.524V271.64Z" fill="#7175B2"/>
<path d="M171.566 315.9L171.551 292.142L177.165 277.958L183.192 316.631L176.819 316.638L171.566 315.9Z" fill="#823919"/>
<path d="M182.419 277.95L187.68 291.946L187.694 315.893L183.193 316.631L177.166 277.957V270.221L182.412 270.214L182.419 277.95Z" fill="#9B6147"/>
<path d="M182.419 270.221H177.166V274.274H182.419V270.221Z" fill="#823919"/>
<path d="M176.811 312.215L171.566 311.484L171.551 294.905L176.804 295.636L183.192 312.208L176.811 312.215Z" fill="#3D3587"/>
<path d="M187.677 294.898L187.685 311.471L183.191 312.209L176.803 295.637H183.176L187.677 294.898Z" fill="#7175B2"/>
<path d="M182.788 269.483H176.791V271.329H182.788V269.483Z" fill="#3D3587"/>
<path d="M182.788 271.322L176.791 269.483H182.788V271.322Z" fill="#7175B2"/>
<path d="M160.54 315.9L160.525 292.142L166.147 277.958L172.166 316.631L165.793 316.638L160.54 315.9Z" fill="#823919"/>
<path d="M171.394 277.95L176.654 291.946L176.669 315.893L172.167 316.631L166.148 277.957L166.141 270.221L171.394 270.214V277.95Z" fill="#9B6147"/>
<path d="M171.394 270.221H166.141V274.274H171.394V270.221Z" fill="#823919"/>
<path d="M165.794 312.215L160.541 311.484L160.533 294.905L165.779 295.636L172.167 312.208L165.794 312.215Z" fill="#3D3587"/>
<path d="M176.654 294.898L176.669 311.471L172.167 312.209L165.779 295.637H172.16L176.654 294.898Z" fill="#7175B2"/>
<path d="M171.763 269.483H165.766V271.329H171.763V269.483Z" fill="#3D3587"/>
<path d="M171.77 271.322L165.766 269.483H171.763L171.77 271.322Z" fill="#7175B2"/>
<path d="M225.933 316.378L225.918 292.612L231.532 278.428L237.559 317.101L231.178 317.109L225.933 316.378Z" fill="#823919"/>
<path d="M236.786 278.428L242.039 292.416L242.061 316.363L237.56 317.101L231.533 278.428L231.525 270.692H236.779L236.786 278.428Z" fill="#9B6147"/>
<path d="M236.779 270.692H231.525V274.744H236.779V270.692Z" fill="#823919"/>
<path d="M231.178 312.686L225.925 311.955L225.918 295.376L231.171 296.107L237.552 312.686H231.178Z" fill="#3D3587"/>
<path d="M242.045 295.369L242.052 311.941L237.55 312.686L231.17 296.107H237.543L242.045 295.369Z" fill="#7175B2"/>
<path d="M237.146 269.954H231.148V271.799H237.146V269.954Z" fill="#3D3587"/>
<path d="M237.153 271.792L231.148 269.954H237.153V271.792Z" fill="#7175B2"/>
<path d="M214.907 316.378L214.893 292.612L220.507 278.428L226.534 317.101L220.16 317.109L214.907 316.378Z" fill="#823919"/>
<path d="M225.759 278.428L231.02 292.416L231.034 316.363L226.533 317.101L220.506 278.428V270.692H225.752L225.759 278.428Z" fill="#9B6147"/>
<path d="M225.759 270.692H220.506V274.744H225.759V270.692Z" fill="#823919"/>
<path d="M220.153 312.687L214.907 311.956L214.893 295.376L220.146 296.107L226.534 312.687H220.153Z" fill="#3D3587"/>
<path d="M231.019 295.369L231.034 311.941L226.532 312.686L220.145 296.107H226.518L231.019 295.369Z" fill="#7175B2"/>
<path d="M226.128 269.954H220.131V271.799H226.128V269.954Z" fill="#3D3587"/>
<path d="M226.128 271.792L220.131 269.954H226.128V271.792Z" fill="#7175B2"/>
<path d="M243.958 315.212H144.789V319.54H243.958V315.212Z" fill="#A47557"/>
<path d="M126.061 253.113V273H131.572V253.113H126.061Z" fill="#353535"/>
</svg>
