<svg width="1440" height="200" viewBox="0 310 1440 50" fill="none" xmlns="http://www.w3.org/2000/svg">
<path fill-rule="evenodd" clip-rule="evenodd" d="M1227.4 428.158L1605.56 361.477L1575.45 305.861L1259.32 361.602L1229.21 305.987L910.132 362.249L880.016 306.633L563.893 362.374L533.778 306.759L214.7 363.021L184.585 307.405L-193.581 374.086L-163.466 429.702L155.612 373.44L185.727 429.055L501.85 373.314L531.965 428.93L851.043 372.668L881.158 428.283L1197.28 372.542L1227.4 428.158Z" fill="#7175B2"/>
<path fill-rule="evenodd" clip-rule="evenodd" d="M1256.37 362.123L1634.54 295.442L1604.42 239.827L1288.3 295.568L1258.18 239.952L939.105 296.214L908.99 240.599L592.867 296.34L562.752 240.724L243.674 296.986L213.559 241.371L-164.607 308.052L-134.492 363.667L184.586 307.405L214.701 363.021L530.824 307.28L560.939 362.895L880.017 306.633L910.132 362.249L1226.26 306.508L1256.37 362.123Z" fill="#3D3587"/>
</svg>
