<svg width="1440" height="200" viewBox="0 310 1440 50" fill="none" xmlns="http://www.w3.org/2000/svg">
<path fill-rule="evenodd" clip-rule="evenodd" d="M1225.4 428.158L1603.56 361.477L1573.45 305.861L1257.32 361.602L1227.21 305.987L908.132 362.249L878.016 306.633L561.893 362.374L531.778 306.759L212.7 363.021L182.585 307.405L-195.581 374.086L-165.466 429.702L153.612 373.44L183.727 429.055L499.85 373.314L529.965 428.93L849.043 372.668L879.158 428.283L1195.28 372.542L1225.4 428.158Z" fill="#3D3587"/>
<path fill-rule="evenodd" clip-rule="evenodd" d="M1254.37 362.123L1632.54 295.442L1602.42 239.827L1286.3 295.568L1256.18 239.952L937.105 296.214L906.99 240.599L590.867 296.34L560.752 240.724L241.674 296.986L211.559 241.371L-166.607 308.052L-136.492 363.667L182.586 307.405L212.701 363.021L528.824 307.28L558.939 362.895L878.017 306.633L908.132 362.249L1224.26 306.508L1254.37 362.123Z" fill="#7175B2"/>
</svg>
