<svg width="400" height="400" viewBox="0 0 294 324" fill="none" xmlns="http://www.w3.org/2000/svg">
<path d="M245.39 323.813L230.7 259.916L238.66 218.745L280.41 319.522L261.45 322.961L245.39 323.813Z" fill="#823919"/>
<path d="M254.27 215.911L278.53 250.73L293.33 315.116L280.41 319.522L238.66 218.746L233.88 197.947L249.49 195.113L254.27 215.911Z" fill="#9B6147"/>
<path d="M249.486 195.111L233.878 197.942L236.383 208.84L251.991 206.009L249.486 195.111Z" fill="#823919"/>
<path d="M258.72 311.073L242.65 311.926L232.41 267.352L248.48 266.5L277.67 307.635L258.72 311.073Z" fill="#3D3587"/>
<path d="M280.35 258.655L290.6 303.228L277.67 307.635L248.48 266.5L267.43 263.061L280.35 258.655Z" fill="#7175B2"/>
<path d="M250.164 192.927L232.322 196.163L233.461 201.116L251.302 197.88L250.164 192.927Z" fill="#3D3587"/>
<path d="M251.291 197.885L232.311 196.161L250.151 192.927L251.291 197.885Z" fill="#7175B2"/>
<path d="M258.7 0.88845L282.97 19.3682L289.94 49.309L277.07 93.998L252.76 114.574H228.78L209.15 96.1036L192.17 49.2734L198.55 19.3682L223.98 0.88845H258.7ZM259.07 0H223.62L197.63 18.8973L191.13 49.3356L208.26 96.5745L228.35 115.472H253.16L277.97 94.4777L290.97 49.3356L283.88 18.8973L259.07 0Z" fill="black"/>
<path d="M208.26 96.5745L191.13 49.3356L197.63 18.8973L223.62 0L253.16 115.472H228.35L208.26 96.5745Z" fill="#E06636"/>
<path d="M283.88 18.8973L290.97 49.3356L277.97 94.4777L253.16 115.472L223.62 0H259.07L283.88 18.8973Z" fill="#E48D3D"/>
<path d="M250.8 123.868H229.53L233.07 115.472H247.25L250.8 123.868Z" fill="#F94449"/>
<path d="M248.43 116.52C251.97 124.916 253.16 127.022 255.52 129.118C258.01 131.331 269.62 143.369 269.7 150.113C269.76 155.63 268.96 160.863 264.97 169.01C261.38 176.348 257.43 178.694 255.52 182.656C252.87 188.129 250.63 196.525 253.16 208.901" stroke="black" stroke-width="2" stroke-miterlimit="10" stroke-linecap="round"/>
<path d="M250.8 120.723H230.71L231.89 116.52H249.61L250.8 120.723Z" fill="black" stroke="black" stroke-width="2" stroke-miterlimit="10" stroke-linecap="round"/>
<path d="M252.67 205.802L236.291 207.847L237.114 213.047L253.493 211.002L252.67 205.802Z" fill="black" stroke="black" stroke-width="2" stroke-miterlimit="10" stroke-linecap="round"/>
<path d="M45.5303 231.61L44.2803 232.721L45.1203 233.459L46.3703 232.348L45.5303 231.61Z" fill="black"/>
<path d="M46.3701 232.347L45.1201 233.459L45.9501 234.205L47.2001 233.094L46.3701 232.347Z" fill="black"/>
<path d="M46.7903 230.491L45.5303 231.611L46.3703 232.348L47.6203 231.237L46.7903 230.491Z" fill="black"/>
<path d="M47.6201 231.237L46.3701 232.348L47.2001 233.095L48.4601 231.975L47.6201 231.237Z" fill="black"/>
<path d="M43.8604 230.117L42.6104 231.237L43.4403 231.975L44.7004 230.864L43.8604 230.117Z" fill="black"/>
<path d="M44.7004 230.864L43.4404 231.975L44.2804 232.722L45.5304 231.61L44.7004 230.864Z" fill="black"/>
<path d="M62.5696 236.159L66.5596 242.36L63.0596 243.915L59.3696 240.637L62.5796 236.159M62.6596 232.721L56.8096 240.886L62.6596 246.083L69.3396 243.116L62.6596 232.721Z" fill="#33332E"/>
<path d="M141.2 140.677L108.61 174.083L111.12 176.304L143.7 142.907L141.2 140.677Z" fill="#33332E"/>
<path d="M25.9 259.445L38.43 257.215L39.29 249.877L41.77 237.918L70.18 209.71L108.61 172.599L113.62 177.05L87.72 207.48L60.99 235.688L55.14 245.337L55.98 260.929L40.94 266.864L20.89 296.556L16.71 303.237L0 292.842L4.18 281.71L25.9 259.445Z" fill="#823919"/>
<path d="M20.89 296.556L16.71 303.237L0 292.842L1.67 288.391L20.89 296.556Z" fill="#33332E"/>
</svg>
