<svg width="654" height="906" viewBox="0 85 654 906" fill="none" xmlns="http://www.w3.org/2000/svg">
<g clip-path="url(#clip0_106_1808)">
<path d="M61.5787 -10.3937L202.315 -3.8457L209.021 223.777L202.271 439.951L202.271 440.686L202.672 441.287L231.256 482.558L180.571 495.231L110.214 495.231L48.9465 475.876L78.0206 424.204L78.3325 423.67L78.3325 423.046L71.5597 220.414L74.9461 146.158L74.9461 146.002L74.9461 145.846L61.5787 -10.3937ZM59.1503 -12.7323L72.6737 146.069L69.2873 220.414L76.0378 423.135L45.627 477.19L109.835 497.458L180.816 497.458L234.887 483.939L204.476 440.018L211.227 223.777L204.476 -5.98384L59.1503 -12.7323Z" fill="black"/>
<path d="M204.476 -5.96156L130.131 -9.34695L140.268 139.32L140.268 392.734L180.816 497.48L234.909 483.961L204.476 440.04L211.249 213.665L204.476 -5.96156Z" fill="#8B4D32"/>
<path d="M130.131 -9.34695L59.1503 -12.7323L72.6737 146.069L69.2873 220.413L76.0378 423.135L45.627 477.212L109.835 497.48L180.816 497.48L140.268 392.734L140.268 139.32L130.131 -9.34695Z" fill="#674130"/>
<path d="M49.6817 457.501L59.6181 484.072L34.6211 481.533L49.6817 457.501Z" fill="#E48D3D"/>
<path d="M69.6435 463.604L82.2088 489.039L57.0781 489.039L69.6435 463.604Z" fill="#EEBC44"/>
<path d="M60.3308 466.967L72.8962 492.402L47.7432 492.402L60.3308 466.967Z" fill="#E06636"/>
<path d="M83.991 470.353L96.5563 495.787L71.4033 495.787L83.991 470.353Z" fill="#E48D3D"/>
<path d="M113.622 470.353L126.187 495.787L101.057 495.787L113.622 470.353Z" fill="#E06636"/>
<path d="M100.1 477.101L112.665 502.558L87.5342 502.558L100.1 477.101Z" fill="#EEBC44"/>
<path d="M129.797 480.486L142.362 505.921L117.231 505.921L129.797 480.486Z" fill="#EEBC44"/>
<path d="M146.684 473.738L159.272 499.173L134.119 499.173L146.684 473.738Z" fill="#EEBC44"/>
<path d="M166.335 480.486L178.9 505.921L153.747 505.921L166.335 480.486Z" fill="#E48D3D"/>
<path d="M184.313 473.738L196.879 499.173L171.748 499.173L184.313 473.738Z" fill="#E48D3D"/>
<path d="M194.451 477.101L207.016 502.558L181.886 502.558L194.451 477.101Z" fill="#EEBC44"/>
<path d="M201.201 487.235L213.789 512.692L188.636 512.692L201.201 487.235Z" fill="#E48D3D"/>
<path d="M228.248 463.604L240.813 489.039L215.683 489.039L228.248 463.604Z" fill="#EEBC44"/>
<path d="M214.725 470.353L227.29 495.787L202.159 495.787L214.725 470.353Z" fill="#E48D3D"/>
<path d="M224.861 477.101L237.449 502.558L212.296 502.558L224.861 477.101Z" fill="#E06636"/>
<path d="M155.484 485.565L168.05 510.999L142.919 510.999L155.484 485.565Z" fill="#E06636"/>
<path d="M118.301 488.928L130.888 514.385L105.735 514.385L118.301 488.928Z" fill="#E48D3D"/>
<path d="M71.0027 478.794L83.568 504.229L58.415 504.229L71.0027 478.794Z" fill="#EEBC44"/>
<path d="M87.8905 482.179L100.456 507.614L75.3252 507.614L87.8905 482.179Z" fill="#E48D3D"/>
<path d="M47.3425 472.045L59.9079 497.48L34.7549 497.48L47.3425 472.045Z" fill="#EEBC44"/>
<path d="M217.264 559.887L229.83 585.322L204.677 585.322L217.264 559.887Z" fill="#EEBC44"/>
<path d="M207.128 566.658L219.693 592.093L194.54 592.093L207.128 566.658Z" fill="#E48D3D"/>
<path d="M227.401 570.021L239.967 595.478L214.836 595.478L227.401 570.021Z" fill="#E06636"/>
<path d="M232.436 -30.6615L334.496 -25.6725L339.398 149.142L334.43 315.605L334.43 316.318L334.786 316.897L355.394 348.123L318.99 357.677L267.548 357.677L223.28 343.022L244.356 303.734L244.645 303.199L244.645 302.598L239.677 146.559L242.15 89.4082L242.15 89.2745L242.15 89.1409L232.436 -30.6615ZM230.008 -33.0001L239.922 89.2968L237.449 146.536L242.417 302.643L220.094 344.269L267.214 359.882L319.302 359.882L358.981 349.481L336.657 315.65L341.626 149.12L336.657 -27.8106L230.008 -33.0001Z" fill="black"/>
<path d="M336.68 -27.7884L282.097 -30.3942L289.538 84.0851L289.538 279.234L319.303 359.882L359.004 349.481L336.68 315.65L341.626 141.325L336.68 -27.7884Z" fill="#8B4D32"/>
<path d="M282.096 -30.3942L230.008 -33.0001L239.922 89.2968L237.449 146.536L242.417 302.643L220.094 344.269L267.214 359.882L319.302 359.882L289.537 279.234L289.537 84.0851L282.096 -30.3942Z" fill="#674130"/>
<path d="M223.057 329.102L230.365 349.57L212.007 347.61L223.057 329.102Z" fill="#E48D3D"/>
<path d="M237.717 333.801L246.94 353.379L228.493 353.379L237.717 333.801Z" fill="#EEBC44"/>
<path d="M230.877 336.385L240.1 355.985L221.653 355.985L230.877 336.385Z" fill="#E06636"/>
<path d="M248.232 338.991L257.456 358.59L239.009 358.59L248.232 338.991Z" fill="#E48D3D"/>
<path d="M269.976 338.991L279.2 358.59L260.753 358.59L269.976 338.991Z" fill="#E06636"/>
<path d="M260.062 344.203L269.286 363.802L250.839 363.802L260.062 344.203Z" fill="#EEBC44"/>
<path d="M281.851 346.808L291.075 366.386L272.628 366.386L281.851 346.808Z" fill="#EEBC44"/>
<path d="M294.261 341.597L303.484 361.196L285.037 361.196L294.261 341.597Z" fill="#EEBC44"/>
<path d="M308.675 346.808L317.899 366.386L299.43 366.386L308.675 346.808Z" fill="#E48D3D"/>
<path d="M321.864 341.597L331.088 361.196L312.641 361.196L321.864 341.597Z" fill="#E48D3D"/>
<path d="M329.306 344.203L338.529 363.802L320.082 363.802L329.306 344.203Z" fill="#EEBC44"/>
<path d="M334.274 351.998L343.498 371.597L325.051 371.597L334.274 351.998Z" fill="#E48D3D"/>
<path d="M354.102 333.801L363.348 353.379L344.879 353.379L354.102 333.801Z" fill="#EEBC44"/>
<path d="M344.188 338.991L353.412 358.59L334.965 358.59L344.188 338.991Z" fill="#E48D3D"/>
<path d="M351.63 344.203L360.853 363.802L342.406 363.802L351.63 344.203Z" fill="#E06636"/>
<path d="M300.722 350.706L309.945 370.306L291.498 370.306L300.722 350.706Z" fill="#E06636"/>
<path d="M273.43 353.312L282.653 372.889L264.206 372.889L273.43 353.312Z" fill="#E48D3D"/>
<path d="M238.697 345.494L247.921 365.094L229.474 365.094L238.697 345.494Z" fill="#EEBC44"/>
<path d="M251.106 348.1L260.33 367.7L241.883 367.7L251.106 348.1Z" fill="#E48D3D"/>
<path d="M221.342 340.305L230.565 359.882L212.118 359.882L221.342 340.305Z" fill="#EEBC44"/>
<path d="M462.868 13.2817L452.174 153.218L452.174 153.352L452.174 153.485L454.892 220.079L449.456 401.865L449.456 402.422L449.701 402.934L473.027 449.172L424.125 466.388L367.714 466.388L327.367 455.141L350.27 418.258L350.626 417.679L350.626 417.011L345.168 223.086L350.56 19.0947L462.89 13.2817M465.274 10.9208L348.354 16.9788L342.918 223.086L348.354 417.077L323.892 456.477L367.402 468.593L424.504 468.593L476.169 450.397L451.706 401.91L457.142 220.057L454.424 153.374L465.296 10.9208L465.274 10.9208Z" fill="black"/>
<path d="M348.354 16.9788L408.173 13.9498L400.019 147.316L400.019 374.649L367.38 468.615L323.892 456.477L348.354 417.077L342.918 213.999L348.354 16.9788Z" fill="#8B4D32"/>
<path d="M408.173 13.9498L465.274 10.9208L454.402 153.374L457.12 220.057L451.684 401.932L476.146 450.419L424.481 468.615L367.38 468.615L400.019 374.649L400.019 147.316L408.173 13.9498Z" fill="#674130"/>
<path d="M472.894 432.735L464.896 456.588L485.013 454.294L472.894 432.735Z" fill="#E48D3D"/>
<path d="M456.831 438.214L446.716 461.02L466.945 461.02L456.831 438.214Z" fill="#EEBC44"/>
<path d="M464.338 441.243L454.224 464.072L474.431 464.072L464.338 441.243Z" fill="#E06636"/>
<path d="M445.29 444.272L435.176 467.101L455.405 467.101L445.29 444.272Z" fill="#E48D3D"/>
<path d="M421.452 444.272L411.337 467.101L431.566 467.101L421.452 444.272Z" fill="#E06636"/>
<path d="M432.324 450.33L422.209 473.159L442.438 473.159L432.324 450.33Z" fill="#EEBC44"/>
<path d="M408.441 453.359L398.326 476.188L418.556 476.188L408.441 453.359Z" fill="#EEBC44"/>
<path d="M394.85 447.301L384.735 470.13L404.965 470.13L394.85 447.301Z" fill="#EEBC44"/>
<path d="M379.054 453.359L368.939 476.188L389.169 476.188L379.054 453.359Z" fill="#E48D3D"/>
<path d="M364.595 447.301L354.48 470.13L374.688 470.13L364.595 447.301Z" fill="#E48D3D"/>
<path d="M356.419 450.33L346.305 473.159L366.534 473.159L356.419 450.33Z" fill="#EEBC44"/>
<path d="M350.983 459.417L340.868 482.246L361.097 482.246L350.983 459.417Z" fill="#E48D3D"/>
<path d="M329.239 438.214L319.124 461.02L339.353 461.02L329.239 438.214Z" fill="#EEBC44"/>
<path d="M340.111 444.272L329.996 467.101L350.225 467.101L340.111 444.272Z" fill="#E48D3D"/>
<path d="M331.956 450.33L321.842 473.159L342.071 473.159L331.956 450.33Z" fill="#E06636"/>
<path d="M387.766 457.902L377.651 480.731L397.881 480.731L387.766 457.902Z" fill="#E06636"/>
<path d="M417.686 460.931L407.571 483.76L427.801 483.76L417.686 460.931Z" fill="#E48D3D"/>
<path d="M455.739 451.844L445.624 474.673L465.853 474.673L455.739 451.844Z" fill="#EEBC44"/>
<path d="M442.149 454.873L432.034 477.702L452.264 477.702L442.149 454.873Z" fill="#E48D3D"/>
<path d="M474.788 445.786L464.673 468.615L484.902 468.615L474.788 445.786Z" fill="#EEBC44"/>
<path d="M472.358 507.614L484.055 529.374L460.64 529.374L472.358 507.614Z" fill="#EEBC44"/>
<path d="M462.912 513.405L474.609 535.142L451.216 535.142L462.912 513.405Z" fill="#E48D3D"/>
<path d="M481.782 516.278L493.479 538.038L470.086 538.038L481.782 516.278Z" fill="#E06636"/>
<path d="M626.619 80.8556L613.051 263.51L613.051 263.644L613.051 263.778L616.482 350.372L609.598 586.703L609.598 587.26L609.821 587.75L639.697 648.553L577.026 671.226L505.466 671.226L453.511 656.348L482.964 607.616L483.298 607.06L483.298 606.414L476.392 354.314L483.209 88.5173L626.597 80.8779M629.025 78.4948L481.048 86.3791L474.164 354.314L481.048 606.48L450.08 657.707L505.131 673.475L577.405 673.475L642.793 649.845L611.826 586.814L618.71 350.417L615.279 263.733L629.047 78.5393L629.025 78.4948Z" fill="black"/>
<path d="M481.048 86.3791L556.752 82.437L546.437 255.804L546.437 551.312L505.154 673.453L450.08 657.684L481.048 606.48L474.186 342.488L481.048 86.3791Z" fill="#8B4D32"/>
<path d="M556.751 82.437L629.025 78.4948L615.256 263.688L618.709 350.372L611.825 586.77L642.793 649.822L577.404 673.453L505.153 673.453L546.436 551.312L546.436 255.804L556.751 82.437Z" fill="#674130"/>
<path d="M638.649 626.815L628.534 657.818L653.999 654.856L638.649 626.815Z" fill="#E48D3D"/>
<path d="M618.331 633.942L605.543 663.609L631.142 663.609L618.331 633.942Z" fill="#EEBC44"/>
<path d="M627.821 637.884L615.033 667.551L640.632 667.551L627.821 637.884Z" fill="#E06636"/>
<path d="M603.738 641.804L590.95 671.471L616.549 671.471L603.738 641.804Z" fill="#E48D3D"/>
<path d="M573.572 641.804L560.762 671.471L586.36 671.471L573.572 641.804Z" fill="#E06636"/>
<path d="M587.341 649.689L574.53 679.355L600.129 679.355L587.341 649.689Z" fill="#EEBC44"/>
<path d="M557.108 653.631L544.298 683.297L569.896 683.297L557.108 653.631Z" fill="#EEBC44"/>
<path d="M539.887 645.747L527.099 675.413L552.697 675.413L539.887 645.747Z" fill="#EEBC44"/>
<path d="M519.902 653.631L507.114 683.297L532.713 683.297L519.902 653.631Z" fill="#E48D3D"/>
<path d="M501.589 645.747L488.801 675.413L514.399 675.413L501.589 645.747Z" fill="#E48D3D"/>
<path d="M491.273 649.689L478.463 679.355L504.061 679.355L491.273 649.689Z" fill="#EEBC44"/>
<path d="M484.39 661.515L471.602 691.182L497.2 691.182L484.39 661.515Z" fill="#E48D3D"/>
<path d="M456.853 633.942L444.064 663.609L469.663 663.609L456.853 633.942Z" fill="#EEBC44"/>
<path d="M470.621 641.804L457.833 671.471L483.432 671.471L470.621 641.804Z" fill="#E48D3D"/>
<path d="M460.306 649.689L447.495 679.355L473.094 679.355L460.306 649.689Z" fill="#E06636"/>
<path d="M530.931 659.555L518.143 689.222L543.741 689.222L530.931 659.555Z" fill="#E06636"/>
<path d="M568.782 663.475L555.994 693.142L581.593 693.142L568.782 663.475Z" fill="#E48D3D"/>
<path d="M616.972 651.671L604.161 681.338L629.76 681.338L616.972 651.671Z" fill="#EEBC44"/>
<path d="M599.772 655.613L586.962 685.28L612.561 685.28L599.772 655.613Z" fill="#E48D3D"/>
<path d="M641.056 643.786L628.245 673.453L653.844 673.453L641.056 643.786Z" fill="#EEBC44"/>
<path d="M317.809 504.229L329.907 521.156L305.712 521.156L317.809 504.229Z" fill="#EEBC44"/>
<path d="M308.052 508.728L320.149 525.655L295.954 525.655L308.052 508.728Z" fill="#E48D3D"/>
<path d="M327.568 510.977L339.688 527.882L315.471 527.882L327.568 510.977Z" fill="#E06636"/>
<path d="M419.958 565.054L432.613 584.386L407.326 584.386L419.958 565.054Z" fill="#EEBC44"/>
<path d="M409.777 570.199L422.409 589.531L397.145 589.531L409.777 570.199Z" fill="#E48D3D"/>
<path d="M430.162 572.76L442.795 592.093L417.53 592.093L430.162 572.76Z" fill="#E06636"/>
<path d="M232.458 385.985L243.175 405.318L221.742 405.318L232.458 385.985Z" fill="#EEBC44"/>
<path d="M223.814 391.108L234.53 410.44L213.12 410.44L223.814 391.108Z" fill="#E48D3D"/>
<path d="M241.103 393.669L251.797 413.002L230.387 413.002L241.103 393.669Z" fill="#E06636"/>
<path d="M319.392 375.851L326.855 387.923L311.906 387.923L319.392 375.851Z" fill="#EEBC44"/>
<path d="M313.354 379.059L320.84 391.13L305.891 391.13L313.354 379.059Z" fill="#E48D3D"/>
<path d="M325.407 380.662L332.893 392.734L317.943 392.734L325.407 380.662Z" fill="#E06636"/>
<path opacity="0.5" d="M367.982 835.372C434.487 835.372 488.4 819.248 488.4 799.358C488.4 779.468 434.487 763.344 367.982 763.344C301.477 763.344 247.564 779.468 247.564 799.358C247.564 819.248 301.477 835.372 367.982 835.372Z" fill="black"/>
<path d="M368.517 606.948L399.596 730.425L315.493 730.425L368.517 606.948Z" fill="#FF2A00"/>
<path d="M366.512 633.786L390.84 730.425L325.006 730.425L366.512 633.786Z" fill="#FF7805"/>
<path d="M365.843 649.889L386.117 730.425L331.244 730.425L365.843 649.889Z" fill="#FFE100"/>
<path d="M408.842 561.669L439.944 730.426L355.818 730.426L408.842 561.669Z" fill="#FF2A00"/>
<path d="M406.837 598.351L431.166 730.425L365.354 730.425L406.837 598.351Z" fill="#FF7805"/>
<path d="M406.169 620.378L426.443 730.425L371.592 730.425L406.169 620.378Z" fill="#FFE100"/>
<path d="M331.957 810.65L347.441 820.962L368.762 814.949L349.379 805.483L331.957 810.65Z" fill="#A47557"/>
<path d="M368.762 814.949L349.379 805.483L374.576 716.015L397.813 724.612L368.762 814.949Z" fill="#A97E62"/>
<path d="M349.379 805.483L331.957 810.65L361.009 717.73L374.577 716.015L349.379 805.483Z" fill="#BA9881"/>
<path d="M368.762 814.949L347.441 820.962" stroke="#80503A" stroke-linecap="round" stroke-linejoin="round"/>
<path d="M347.441 820.962L331.957 810.65" stroke="#80503A" stroke-linecap="round" stroke-linejoin="round"/>
<path d="M397.814 724.612L368.762 814.949" stroke="#80503A" stroke-linecap="round" stroke-linejoin="round"/>
<path d="M361.009 717.73L331.957 810.65" stroke="#80503A" stroke-linecap="round" stroke-linejoin="round"/>
<path d="M480.491 799.937L467.258 815.706L443.575 813.857L461.042 798.155L480.491 799.937Z" fill="#A47557"/>
<path d="M443.575 813.857L461.042 798.155L410.647 700.024L388.925 715.659L443.575 813.857Z" fill="#A97E62"/>
<path d="M461.042 798.155L480.491 799.937L425.128 698.754L410.646 700.024L461.042 798.155Z" fill="#BA9881"/>
<path d="M443.575 813.857L467.258 815.706" stroke="#80503A" stroke-linecap="round" stroke-linejoin="round"/>
<path d="M467.258 815.706L480.492 799.937" stroke="#80503A" stroke-linecap="round" stroke-linejoin="round"/>
<path d="M388.925 715.659L443.575 813.857" stroke="#80503A" stroke-linecap="round" stroke-linejoin="round"/>
<path d="M425.128 698.754L480.491 799.937" stroke="#80503A" stroke-linecap="round" stroke-linejoin="round"/>
<path d="M262.736 773.79L263.583 795.104L279.802 803.679L276.193 780.56L262.736 773.79Z" fill="#A47557"/>
<path d="M279.802 803.679L276.192 780.56L356.753 706.238L363.17 731.16L279.802 803.679Z" fill="#A97E62"/>
<path d="M276.193 780.56L262.736 773.79L347.998 698.621L356.754 706.238L276.193 780.56Z" fill="#BA9881"/>
<path d="M279.802 803.679L263.583 795.104" stroke="#80503A" stroke-linecap="round" stroke-linejoin="round"/>
<path d="M263.583 795.104L262.736 773.79" stroke="#80503A" stroke-linecap="round" stroke-linejoin="round"/>
<path d="M363.17 731.161L279.802 803.679" stroke="#80503A" stroke-linecap="round" stroke-linejoin="round"/>
<path d="M347.998 698.621L262.736 773.79" stroke="#80503A" stroke-linecap="round" stroke-linejoin="round"/>
<path d="M287.109 797.554L295.91 811.586L315.003 812.721L302.816 798.267L287.109 797.554Z" fill="#A47557"/>
<path d="M315.003 812.721L302.816 798.267L353.902 725.57L369.497 740.47L315.003 812.721Z" fill="#A97E62"/>
<path d="M302.816 798.267L287.109 797.554L342.473 722.964L353.902 725.57L302.816 798.267Z" fill="#BA9881"/>
<path d="M315.002 812.721L295.909 811.586" stroke="#80503A" stroke-linecap="round" stroke-linejoin="round"/>
<path d="M295.91 811.586L287.109 797.554" stroke="#80503A" stroke-linecap="round" stroke-linejoin="round"/>
<path d="M369.497 740.47L315.003 812.721" stroke="#80503A" stroke-linecap="round" stroke-linejoin="round"/>
<path d="M342.473 722.964L287.109 797.554" stroke="#80503A" stroke-linecap="round" stroke-linejoin="round"/>
<path d="M428.692 818.913L412.228 831.252L389.593 824.058L410.179 812.721L428.692 818.913Z" fill="#A47557"/>
<path d="M389.593 824.058L410.178 812.721L383.421 705.726L358.714 716.015L389.593 824.058Z" fill="#A97E62"/>
<path d="M410.178 812.721L428.692 818.913L397.813 707.775L383.421 705.726L410.178 812.721Z" fill="#BA9881"/>
<path d="M389.593 824.058L412.228 831.252" stroke="#80503A" stroke-linecap="round" stroke-linejoin="round"/>
<path d="M412.229 831.252L428.693 818.913" stroke="#80503A" stroke-linecap="round" stroke-linejoin="round"/>
<path d="M358.714 716.015L389.593 824.058" stroke="#80503A" stroke-linecap="round" stroke-linejoin="round"/>
<path d="M397.813 707.775L428.692 818.913" stroke="#80503A" stroke-linecap="round" stroke-linejoin="round"/>
<path d="M128.929 541.401L188.882 547.392L236.87 565.388L245.849 586.369L167.895 604.342L140.915 577.371L128.929 541.401Z" fill="#BA9881"/>
<path d="M20.9868 559.397L68.9535 541.401L128.929 541.401L140.915 577.371L92.948 583.362L-1.68555e-07 580.377L20.9868 559.397Z" fill="#A97E62"/>
<path d="M-1.30029e-08 580.377L92.948 583.362L140.915 577.371L167.895 604.342L113.935 610.356L56.9674 607.349L-1.30029e-08 580.377Z" fill="#A47557"/>
<path d="M245.849 712.251L257.857 934.061L134.921 889.093L113.935 610.356L167.894 604.342L245.849 586.369L245.849 712.251Z" fill="#80503A"/>
<path d="M113.935 610.356L134.922 889.093L17.9791 862.121L5.99305 712.251L0 580.377L56.9674 607.349L113.935 610.356Z" fill="#5E4134"/>
<path d="M257.857 1006L11.9863 1006L17.9794 862.121L134.922 889.093L257.857 934.061L257.857 1006Z" fill="#4D352A"/>
<path d="M172.378 466.277C194.612 466.277 212.614 488.259 212.614 515.342C212.614 542.426 194.612 564.408 172.378 564.408" stroke="#D3F7FF" stroke-width="2" stroke-linecap="round" stroke-linejoin="round"/>
<path d="M172.774 455.007L141.294 461.444L108.9 461.444L79.4248 455.007L79.4248 432.467L108.9 438.904L141.294 438.904L172.774 432.467L172.774 455.007Z" fill="#F6E7B2"/>
<path d="M172.774 432.467L140.581 438.904L108.388 438.904L79.4248 432.467L87.4675 417.991L138.977 411.554L171.17 421.22L172.774 432.467Z" fill="#F6EDD2"/>
<path d="M172.774 578.885L141.294 585.322L108.9 459.84L141.294 459.84L172.774 453.403L172.774 578.885Z" fill="#EFD284"/>
<path d="M79.4248 453.403L108.9 459.84L141.294 585.322L108.9 585.322L79.4248 578.885L79.4248 453.403Z" fill="#E5BA62"/>
</g>
<defs>
<clipPath id="clip0_106_1808">
<rect width="654" height="1039" fill="white" transform="translate(0 -33.0001)"/>
</clipPath>
</defs>
</svg>
