<svg width="400" height="400" viewBox="0 0 409 330" fill="none" xmlns="http://www.w3.org/2000/svg">
<g clip-path="url(#clip0_106_2187)">
<path d="M398.145 201.808H299.616L189.021 209.861L54.2948 242.065L10.0543 262.197L4.02148 221.94L52.2839 213.887L176.955 157.519L267.441 93.0984L331.791 8.55249L398.145 201.808Z" fill="#D2B48C"/>
<path d="M408.2 201.809H398.145L331.791 8.5526L337.824 0.5L408.2 201.809Z" fill="#C9980B"/>
<path d="M10.0547 262.197L6.0328 264.21L0 221.94H4.02186L10.0547 262.197Z" fill="#C9980B"/>
<path d="M189.021 209.861L160.868 216.702L146.791 171.105L176.955 157.519L189.021 209.861Z" fill="#CE0005"/>
<path d="M398.146 201.808H299.616L189.021 209.861L331.791 8.55249L398.146 201.808Z" fill="#D9C6AC"/>
<path d="M307.193 155.231C328.295 227.242 287.097 302.742 215.164 323.874C143.232 344.999 67.8154 303.755 46.707 231.743L59.2465 228.057C78.3184 293.131 146.472 330.407 211.482 311.314C276.485 292.221 313.719 223.992 294.647 158.911L307.187 155.224L307.193 155.231Z" fill="#CE0005"/>
<path d="M307.147 149.201L289.795 154.35L292.081 162.071L309.433 156.922L307.147 149.201Z" fill="#C9980B"/>
<path d="M60.8053 225.575L43.4531 230.724L45.739 238.444L63.0912 233.296L60.8053 225.575Z" fill="#C9980B"/>
</g>
<defs>
<clipPath id="clip0_106_2187">
<rect width="408.2" height="328.9" fill="white" transform="translate(0 0.5)"/>
</clipPath>
</defs>
</svg>
