<svg width="90" height="90" viewBox="0 0 90 90" fill="none" xmlns="http://www.w3.org/2000/svg">
<circle cx="45" cy="45" r="45" fill="#3D3587"/>
<path d="M59.4619 33.2785C67.9442 33.2785 74.8117 41.0228 74.8117 50.564C74.8117 60.1051 67.9442 67.8495 59.4619 67.8495" stroke="#D3F7FF" stroke-width="2" stroke-linecap="round" stroke-linejoin="round"/>
<path d="M59.6122 29.3082L47.6027 31.5758H35.2446L24 29.3082V21.3677L35.2446 23.6353H47.6027L59.6122 21.3677V29.3082Z" fill="#F6E7B2"/>
<path d="M59.6122 21.3677L47.3307 23.6353H35.0491L24 21.3677L27.0683 16.2676L46.7187 14L59.0003 17.4053L59.6122 21.3677Z" fill="#F6EDD2"/>
<path d="M59.6127 72.9496L47.6031 75.2172L35.2451 31.0109H47.6031L59.6127 28.7433V72.9496Z" fill="#EFD284"/>
<path d="M24 28.7433L35.2446 31.0109L47.6026 75.2172H35.2446L24 72.9496V28.7433Z" fill="#E5BA62"/>
</svg>
