<svg width="400" height="400" viewBox="0 0 288 414" fill="none" xmlns="http://www.w3.org/2000/svg">
<g clip-path="url(#clip0_106_2334)">
<path d="M58.9824 414H179.126V231.09L58.9824 414Z" fill="#FFE435"/>
<path d="M179.413 230.804H59.2695V413.714L179.413 230.804Z" fill="#FFCE00"/>
<path d="M59.2689 414L49.543 408.284V225.374L59.2689 231.09V414Z" fill="#C9980B"/>
<path d="M179.413 231.09H59.2689L49.543 225.374H169.687L179.413 231.09Z" fill="#FFC300"/>
<path d="M123.06 303.396H69.2812V325.117H123.06V303.396Z" fill="#3E3636"/>
<path d="M88.1614 336.549H70.998V353.697H88.1614V336.549Z" fill="#3E3636"/>
<path d="M88.1614 387.421H70.998V404.569H88.1614V387.421Z" fill="#3E3636"/>
<path d="M88.1614 361.699H70.998V378.847H88.1614V361.699Z" fill="#3E3636"/>
<path d="M163.679 336.549H146.516V353.697H163.679V336.549Z" fill="#3E3636"/>
<path d="M163.679 387.421H146.516V404.569H163.679V387.421Z" fill="#3E3636"/>
<path d="M163.679 361.699H146.516V378.847H163.679V361.699Z" fill="#3E3636"/>
<path d="M125.921 336.549H108.758V353.697H125.921V336.549Z" fill="#3E3636"/>
<path d="M125.921 387.421H108.758V404.569H125.921V387.421Z" fill="#3E3636"/>
<path d="M125.921 361.699H108.758V378.847H125.921V361.699Z" fill="#3E3636"/>
<path d="M150.522 326.832C157.158 326.832 162.537 321.458 162.537 314.828C162.537 308.199 157.158 302.825 150.522 302.825C143.887 302.825 138.508 308.199 138.508 314.828C138.508 321.458 143.887 326.832 150.522 326.832Z" fill="#3E3636"/>
<path d="M90.1634 363.7H73V380.848H90.1634V363.7Z" fill="#5D5555"/>
<path d="M126.779 305.397H73V327.118H126.779V305.397Z" fill="#5D5555"/>
<path d="M153.669 328.261C160.304 328.261 165.683 322.887 165.683 316.257C165.683 309.628 160.304 304.254 153.669 304.254C147.033 304.254 141.654 309.628 141.654 316.257C141.654 322.887 147.033 328.261 153.669 328.261Z" fill="#5D5555"/>
<path d="M90.1634 338.55H73V355.697H90.1634V338.55Z" fill="#5D5555"/>
<path d="M90.1634 389.421H73V406.569H90.1634V389.421Z" fill="#5D5555"/>
<path d="M165.683 338.55H148.52V355.697H165.683V338.55Z" fill="#5D5555"/>
<path d="M165.683 389.421H148.52V406.569H165.683V389.421Z" fill="#5D5555"/>
<path d="M165.683 363.7H148.52V380.848H165.683V363.7Z" fill="#5D5555"/>
<path d="M127.923 338.55H110.76V355.697H127.923V338.55Z" fill="#5D5555"/>
<path d="M127.923 389.421H110.76V406.569H127.923V389.421Z" fill="#5D5555"/>
<path d="M127.923 363.7H110.76V380.848H127.923V363.7Z" fill="#5D5555"/>
<path d="M165.682 292.251H73V243.665L165.682 292.251Z" fill="#123456"/>
<path d="M73 243.665H165.682V292.251L73 243.665Z" fill="#2B547E"/>
<path d="M72.3069 137.611L65.8478 148.889L48.6844 159.355H29.1124L18.3624 157.068L6.92019 147.351L0.626953 126.202L2.90968 116.697L72.3069 137.611Z" fill="#F96163"/>
<path d="M105.61 63.6127V57.8167L101.033 42.8124L86.4443 35.8904L60.9853 42.458L38.3869 59.3257L21.7956 77.6168L7.49278 97.6226L2.91016 116.697L36.476 126.814" fill="#EE6B6E"/>
<path d="M131.068 70.7577L128.493 76.7423L110.472 80.4748L95.0246 90.7635L85.8708 103.339L77.8612 127.917L72.306 137.611L36.4746 126.814L41.5321 110.484L51.258 93.2785L70.1377 75.6163L91.878 64.756L105.609 63.6128V65.6705L124.774 66.385L131.068 70.7577Z" fill="#F69696"/>
<path d="M80.1512 227.374C79.2186 224.231 78.1831 219.458 78.4348 213.656C78.8067 205.048 81.8103 198.978 84.7281 193.079C90.7638 180.881 98.4416 173.547 100.175 171.93C107.939 164.682 115.542 160.927 119.055 159.355C125.76 156.36 124.908 158.063 146.23 152.21C149.365 151.347 158.937 148.677 169.115 143.636C171.083 142.664 173.125 141.572 175.471 139.88C177.914 138.12 183.595 134.016 186.278 128.203C189.425 121.389 189.688 109.563 181.701 103.053C173.36 96.2507 160.619 99.0115 153.668 105.911C148.747 110.792 145.549 118.92 147.946 126.488C150.521 134.616 158.245 137.971 163.394 140.206C165.939 141.309 175.225 145.345 185.706 142.493C205.558 137.091 211.01 112.055 212.595 104.767C214.626 95.439 213.219 90.992 212.595 89.3344C209.832 81.978 203.59 79.0171 195.432 73.9013C187.949 69.2086 174.161 60.5661 164.538 48.7512C160.201 43.4297 147.924 28.3567 153.096 16.1703C156.379 8.43094 165.367 5.01852 169.115 3.59525C174.138 1.68612 180.809 -0.846039 187.422 2.45206C193.939 5.69872 198.035 13.4324 197.148 20.7431C196.101 29.357 188.566 33.8097 184.562 36.1761C176.134 41.1547 167.633 40.5031 163.394 40.1773C159.269 39.8629 155.699 39.5885 151.951 37.3193C145.91 33.6668 146.631 29.197 141.653 24.1726C135.68 18.1366 125.937 15.7816 117.625 17.3135C107.567 19.1712 101.8 26.3047 99.889 28.7454C95.7527 34.0269 94.2194 39.3999 93.5958 42.4637" stroke="#E06636" stroke-width="3" stroke-miterlimit="10"/>
<path d="M153.096 228.803C151.499 225.557 149.514 220.344 149.663 213.942C149.966 200.75 159.114 191.787 166.254 184.791C180.86 170.484 197.554 165.728 204.014 164.213C216.211 161.355 216.463 164.305 228.042 161.355C236.847 159.109 255.567 154.342 264.085 137.92C271.077 124.442 267.409 110.432 266.946 108.769C263.239 95.4162 255.08 95.0104 248.638 79.0458C245.829 72.078 241.453 61.2292 245.778 51.0376C251.888 36.6563 273.245 28.4882 281.821 35.033C285.7 37.9939 287.136 44.0928 285.826 48.7513C282.959 58.9542 267.123 61.5835 261.797 62.4695C252.214 64.0586 250.4 61.7893 234.336 60.7547C228.866 60.4003 213.207 59.6458 194.86 62.4695C187.256 63.6413 179.888 65.3218 174.836 66.4707C157.821 70.3461 152.872 72.7125 145.658 70.4718C137.151 67.8311 133.644 66.4707 133.644 66.4707C129.765 64.9674 128.111 64.11 125.634 64.1843C121.28 64.3101 117.893 67.2023 115.908 69.3287" stroke="#7175B2" stroke-width="3" stroke-miterlimit="10"/>
</g>
<defs>
<clipPath id="clip0_106_2334">
<rect width="286.525" height="414" fill="white" transform="translate(0.626953)"/>
</clipPath>
</defs>
</svg>
