<svg width="400" height="400" viewBox="0 0 245 354" fill="none" xmlns="http://www.w3.org/2000/svg">
<g clip-path="url(#clip0_114_3796)">
<path d="M49.8975 354H152.629V197.598L49.8975 354Z" fill="#FFE435"/>
<path d="M152.874 197.354H50.1426V353.755L152.874 197.354Z" fill="#FFCE00"/>
<path d="M50.1425 354L41.8262 349.112V192.711L50.1425 197.598V354Z" fill="#C9980B"/>
<path d="M152.874 197.598H50.1425L41.8262 192.711H144.558L152.874 197.598Z" fill="#FFC300"/>
<path d="M104.688 259.426H58.7031V277.999H104.688V259.426Z" fill="#3E3636"/>
<path d="M74.8468 287.774H60.1709V302.436H74.8468V287.774Z" fill="#3E3636"/>
<path d="M74.8468 331.273H60.1709V345.936H74.8468V331.273Z" fill="#3E3636"/>
<path d="M74.8468 309.279H60.1709V323.942H74.8468V309.279Z" fill="#3E3636"/>
<path d="M139.421 287.774H124.745V302.436H139.421V287.774Z" fill="#3E3636"/>
<path d="M139.421 331.273H124.745V345.936H139.421V331.273Z" fill="#3E3636"/>
<path d="M139.421 309.279H124.745V323.942H139.421V309.279Z" fill="#3E3636"/>
<path d="M107.134 287.774H92.458V302.436H107.134V287.774Z" fill="#3E3636"/>
<path d="M107.134 331.273H92.458V345.936H107.134V331.273Z" fill="#3E3636"/>
<path d="M107.134 309.279H92.458V323.942H107.134V309.279Z" fill="#3E3636"/>
<path d="M128.17 279.465C133.843 279.465 138.443 274.87 138.443 269.201C138.443 263.533 133.843 258.937 128.17 258.937C122.496 258.937 117.896 263.533 117.896 269.201C117.896 274.87 122.496 279.465 128.17 279.465Z" fill="#3E3636"/>
<path d="M76.5587 310.99H61.8828V325.652H76.5587V310.99Z" fill="#5D5555"/>
<path d="M107.867 261.136H61.8828V279.709H107.867V261.136Z" fill="#5D5555"/>
<path d="M130.86 280.687C136.534 280.687 141.133 276.091 141.133 270.423C141.133 264.754 136.534 260.159 130.86 260.159C125.186 260.159 120.587 264.754 120.587 270.423C120.587 276.091 125.186 280.687 130.86 280.687Z" fill="#5D5555"/>
<path d="M76.5587 289.484H61.8828V304.147H76.5587V289.484Z" fill="#5D5555"/>
<path d="M76.5587 332.983H61.8828V347.646H76.5587V332.983Z" fill="#5D5555"/>
<path d="M141.133 289.484H126.457V304.147H141.133V289.484Z" fill="#5D5555"/>
<path d="M141.133 332.983H126.457V347.646H141.133V332.983Z" fill="#5D5555"/>
<path d="M141.133 310.99H126.457V325.652H141.133V310.99Z" fill="#5D5555"/>
<path d="M108.846 289.484H94.1699V304.147H108.846V289.484Z" fill="#5D5555"/>
<path d="M108.846 332.983H94.1699V347.646H108.846V332.983Z" fill="#5D5555"/>
<path d="M108.846 310.99H94.1699V325.652H108.846V310.99Z" fill="#5D5555"/>
<path d="M141.133 249.895H61.8828V208.351L141.133 249.895Z" fill="#123456"/>
<path d="M61.8828 208.351H141.133V249.895L61.8828 208.351Z" fill="#2B547E"/>
<path d="M61.2916 117.668L55.7685 127.311L41.0926 136.26H24.3572L15.1651 134.305L5.38117 125.996L0 107.912L1.9519 99.7842L61.2916 117.668Z" fill="#F96163"/>
<path d="M89.768 54.3936V49.4376L85.8544 36.6078L73.3799 30.689L51.6106 36.3048L32.2873 50.7279L18.1006 66.368L5.87062 83.4744L1.95215 99.7842L30.6534 108.435" fill="#EE6B6E"/>
<path d="M111.537 60.503L109.336 65.6202L93.9262 68.8118L80.7178 77.6094L72.8907 88.362L66.0419 109.378L61.2918 117.668L30.6533 108.435L34.9778 94.4714L43.2942 79.7599L59.4377 64.6574L78.0272 55.3711L89.768 54.3936V56.1531L106.156 56.764L111.537 60.503Z" fill="#F69696"/>
<path d="M67.9984 194.422C67.201 191.734 66.3156 187.652 66.5308 182.692C66.8488 175.331 69.4171 170.14 71.912 165.096C77.073 154.666 83.6381 148.396 85.1203 147.013C91.7588 140.815 98.2602 137.604 101.264 136.26C106.997 133.699 106.268 135.155 124.501 130.151C127.182 129.412 135.366 127.13 144.069 122.819C145.751 121.988 147.498 121.055 149.504 119.608C151.593 118.103 156.45 114.593 158.745 109.623C161.435 103.797 161.66 93.6845 154.831 88.1176C147.699 82.3014 136.804 84.6621 130.86 90.5614C126.653 94.7353 123.919 101.685 125.968 108.157C128.17 115.107 134.774 117.976 139.177 119.887C141.354 120.83 149.293 124.281 158.255 121.842C175.231 117.223 179.893 95.8155 181.248 89.5839C182.984 81.6074 181.781 77.8049 181.248 76.3875C178.885 70.0972 173.548 67.5655 166.572 63.1911C160.173 59.1785 148.383 51.7885 140.155 41.6859C136.447 37.1356 125.949 24.2472 130.371 13.8269C133.179 7.20919 140.864 4.29133 144.069 3.07433C148.364 1.44189 154.068 -0.723294 159.723 2.09682C165.295 4.87295 168.798 11.4858 168.039 17.737C167.144 25.1025 160.701 28.9099 157.277 30.9333C150.071 35.1904 142.802 34.6332 139.177 34.3546C135.65 34.0858 132.597 33.8512 129.393 31.9108C124.227 28.7877 124.843 24.9656 120.587 20.6695C115.48 15.5082 107.149 13.4946 100.041 14.8044C91.4408 16.3929 86.5097 22.4925 84.8757 24.5795C81.3388 29.0956 80.0278 33.6899 79.4946 36.3096" stroke="#E06636" stroke-width="3" stroke-miterlimit="10"/>
<path d="M130.371 195.644C129.006 192.868 127.309 188.41 127.436 182.936C127.695 171.656 135.517 163.992 141.623 158.01C154.112 145.776 168.387 141.71 173.91 140.414C184.339 137.971 184.555 140.493 194.456 137.971C201.985 136.05 217.991 131.974 225.275 117.932C231.253 106.407 228.118 94.4275 227.721 93.0052C224.551 81.5879 217.575 81.2409 212.067 67.59C209.665 61.6321 205.923 52.3555 209.621 43.641C214.846 31.3439 233.108 24.3596 240.441 29.9559C243.757 32.4876 244.985 37.7026 243.865 41.686C241.414 50.4103 227.873 52.6585 223.319 53.4161C215.125 54.7748 213.574 52.8345 199.837 51.9498C195.16 51.6468 181.771 51.0017 166.083 53.4161C159.581 54.418 153.28 55.855 148.961 56.8374C134.412 60.1511 130.18 62.1746 124.012 60.2587C116.737 58.0006 113.738 56.8374 113.738 56.8374C110.422 55.552 109.008 54.8188 106.89 54.8824C103.167 54.9899 100.271 57.463 98.5732 59.2812" stroke="#7175B2" stroke-width="3" stroke-miterlimit="10"/>
</g>
<defs>
<clipPath id="clip0_114_3796">
<rect width="245" height="354" fill="white"/>
</clipPath>
</defs>
</svg>
